<svg xmlns="http://www.w3.org/2000/svg" width="763.512" height="708.611" viewBox="0 0 202.01268 187.48663"><g stroke="silver"><path d="M101.05 7.225c-5.662.636-7.792-9.603-16.583-3.376-4.572 3.239-9.864 6.111-8.03 12.402 3.37 11.549 11.404 5.592 15.51 16.309 4.107 10.717 1.503 31.871 1.435 35.638-.192 10.702 7.624 12.427 7.624 12.427M28.414 180.73c18.916 24.901 66.834-62.633 64.634-79.753-1.42-11.047-11.6-21.047-13.504-35.116C77.71 52.3 74.07 40.238 62.432 43.902c-10.56 3.326-37.364 3.455-46.87-3.78C5.99 32.837 2.82 51.369 1.957 66.204.79 86.26 8.334 104.028 11.028 121.389c3.402 21.922-.417 35.905 17.387 59.342zM2.334 66.58c43.467 20.41 76.729 1.134 76.729 1.134M4.979 94.55C49.581 109.292 87 85.858 87 85.858m-74.083 41.577c49.137 2.646 78.241-19.277 78.241-19.277m-76.73 41.956c45.736-1.134 70.304-21.545 70.304-21.545m16.23-121.344c5.662.636 7.793-9.603 16.584-3.376 4.572 3.239 9.864 6.111 8.029 12.402-3.37 11.549-11.403 5.592-15.51 16.309-4.106 10.717-1.502 31.871-1.434 35.638.192 10.702-7.625 12.427-7.625 12.427M173.6 180.73c-18.917 24.901-66.834-62.633-64.634-79.753 1.42-11.047 11.6-21.047 13.504-35.116 1.835-13.562 5.475-25.623 17.112-21.959 10.56 3.326 37.364 3.455 46.869-3.78 9.573-7.286 12.744 11.246 13.607 26.081 1.167 20.056-6.377 37.824-9.071 55.185-3.402 21.922.416 35.905-17.387 59.342zm26.08-114.149c-43.467 20.41-76.73 1.134-76.73 1.134m74.084 26.836c-44.6 14.741-82.02-8.693-82.02-8.693m74.083 41.577c-49.137 2.646-78.241-19.277-78.241-19.277m76.729 41.956c-45.735-1.134-70.304-21.545-70.304-21.545" fill="#ffd5d5" stroke-width="3.665" stroke-linecap="round" stroke-linejoin="round"/><path d="M100.985 186.4l.021-105.775" fill="#ffd5d5" stroke-width="3.465"/><path d="M94.182 122.143c14.363.378 15.119.378 15.119.378m-15.848 12.662c14.363.378 15.119.378 15.119.378m-15.119 13.607c14.363.378 15.119.378 15.119.378m-15.119 15.875c14.363.378 15.119.378 15.119.378m-15.119 19.277c14.363.378 15.119.378 15.119.378" fill="none" stroke-width="4.065"/><path d="M35.973 73.73c-9.478-.827-19.836-3.4-28.631-7.113-3.818-1.612-3.56-.863-2.734-7.938 1.107-9.47 3.463-16.572 5.953-17.943.975-.537 1.154-.514 2.646.332 6.605 3.748 8.635 4.514 15.396 5.807 3.832.734 5.6.832 14.93.835 10.846.002 13.708-.28 19.25-1.902 5.15-1.506 8.399.015 11 5.15 1.034 2.04 2.538 7.374 3.19 11.314.223 1.351.486 2.82.583 3.264.153.7-.234.982-2.938 2.135-11.255 4.798-26.217 7.144-38.645 6.06zm113.302-.31c-7.828-.998-16.365-3.278-22.595-6.033-1.833-.81-2.071-1.043-2.071-2.029 0-1.86 1.135-7.235 2.288-10.836 2.512-7.846 6.147-10.474 12.116-8.758 5.846 1.68 8.516 1.948 19.425 1.946 9.33-.003 11.098-.101 14.93-.835 5.404-1.034 8.555-2.05 11.717-3.775 5.302-2.894 5.271-2.881 6.244-2.438 2.812 1.281 5.56 10.35 6.439 21.254l.26 3.235-2.257 1.013c-6.424 2.883-14.975 5.388-22.95 6.723-6.092 1.02-17.676 1.283-23.546.534z" fill="#faa" stroke-width=".429"/><path d="M27.658 97.19c-5.093-.53-10.53-1.47-15.384-2.662l-5.556-1.364-.566-2.5c-.84-3.712-2.02-12.516-2.303-17.199-.236-3.886-.212-4.099.44-3.831 14.067 5.773 25.242 8.135 38.488 8.135 12.133 0 23.953-2.314 33.593-6.578l2.016-.891.668 2.128c.367 1.17 1.844 4.4 3.282 7.178 2.448 4.726 2.572 5.083 1.94 5.562-1.318.995-9.925 4.696-14.905 6.408-11.22 3.857-20.386 5.461-32.264 5.647-4.365.069-8.617.054-9.449-.033zm131.347-.03c-3.802-.296-10.646-1.34-14.722-2.247-9.059-2.015-22.438-7.023-27.147-10.162-.056-.037 1.071-2.347 2.506-5.131 1.434-2.785 2.905-6.012 3.269-7.172l.66-2.108 3.518 1.448c9.099 3.747 18.409 5.599 29.564 5.882 14.916.379 25.563-1.718 41.241-8.123.957-.391-.169 11.946-1.829 20.04-.376 1.835-.747 3.386-.824 3.447-.45.357-8.065 2.213-11.715 2.855-7.843 1.38-17.003 1.855-24.521 1.27z" fill="#f55" stroke-width=".429"/><path d="M14.745 125.53c-1.124-.168-1.212-.297-1.453-2.142-.496-3.792-1.765-9.975-3.612-17.603-1.026-4.236-1.866-7.833-1.866-7.992 0-.159 1.583.113 3.517.604 7.34 1.864 12.45 2.497 21.808 2.7 6.886.15 10.029.054 13.985-.428 12.551-1.53 23.957-4.81 35.127-10.102 2.585-1.225 4.822-2.096 4.973-1.937.562.595 2.322 5.242 3.021 7.974.733 2.864.893 7.176.346 9.324-.159.624-.309 1.015-.333.87-.025-.146-1.38.562-3.01 1.573-13.863 8.598-32.98 14.707-52.03 16.627-4.52.456-18.542.82-20.473.531zm156.166-.18c-20.029-1.392-40.67-7.568-55.662-16.653-1.816-1.101-3.418-1.966-3.56-1.922-.45.141-.795-4.065-.55-6.71.274-2.943 1.422-6.912 2.786-9.634.521-1.04.993-1.942 1.05-2.005.055-.064 2.033.806 4.395 1.933 11.47 5.472 22.8 8.765 35.477 10.31 3.963.483 7.086.578 13.985.425 9.486-.21 13.552-.693 20.925-2.492 2.42-.59 4.4-.948 4.4-.795 0 .153-.76 3.416-1.689 7.252-1.652 6.824-3.327 15.009-3.784 18.49-.229 1.745-.23 1.747-1.967 1.985-2.245.308-10.03.217-15.806-.185z" fill="red" stroke-width=".429"/><path d="M15.546 145.71c-.154-1.299-.554-5.424-.89-9.166l-.61-6.803 9.452-.231c9.726-.238 13.594-.577 21.705-1.904 14.27-2.335 30.002-7.72 41.136-14.084 1.3-.742 2.362-1.152 2.362-.911 0 .636-4.057 10.697-5.352 13.272-.917 1.824-1.528 2.466-3.66 3.845-11.804 7.636-27.335 13.43-43.585 16.258-5.191.903-15.89 2.087-18.864 2.087h-1.414zm161.413 1.784c-13.045-1.304-24.835-4.048-35.859-8.345-5.993-2.337-15.06-6.888-18.948-9.512-2.602-1.757-2.674-1.85-4.42-5.755-1.623-3.632-4.462-10.905-4.462-11.431 0-.122 2.593 1.115 5.764 2.748 18.532 9.545 39.227 14.336 61.978 14.349l7.078.004-.173 1.04c-.095.57-.353 3.25-.572 5.952-.22 2.703-.585 6.402-.812 8.221l-.413 3.308-2.124-.044c-1.168-.024-4.335-.264-7.037-.535z" fill="#d40000" stroke-width=".429"/><path d="M33.23 182.254c-2.082-1.037-3.68-2.942-7.75-9.235-3.822-5.908-7.24-13.742-8.534-19.56l-.358-1.607h2.188c5.115 0 15.854-1.404 23.623-3.088 11.818-2.563 24.234-7.081 33.356-12.14 1.716-.951 3.119-1.656 3.119-1.566 0 .09-1.292 2.495-2.872 5.345-12.535 22.62-26.768 39.203-36.157 42.125-2.997.933-4.302.879-6.615-.274zm129.366.44c-4.304-1.367-8.96-4.778-14.444-10.582-7.125-7.54-16.12-20.518-22.771-32.856-1.858-3.447-2.212-4.69-1.065-3.746.953.785 10.388 5.349 14.089 6.815 8.611 3.413 18.102 6.062 27.346 7.631 5.676.964 14.139 1.887 17.357 1.892l2.37.004-.237 1.04c-.13.572-.884 3.012-1.676 5.424-2.254 6.864-5.909 13.697-10.831 20.25-3.101 4.13-6.182 5.384-10.138 4.128z" fill="#500" stroke-width=".429"/></g></svg>